# xmcd
#
# Track frame offsets: 
#        150
#        17410
#        35426
#        55246
#        75853
#        112522
#        128930
#        147431
#        172533
#        193827
#        209811
#        227942
#
# Disc length: 3437 seconds
#
# Revision: 0
# Processed by: cddbd v1.5.2PL0 Copyright (c) Steve Scherf et al.
# Submitted via: ExactAudioCopyFreeDBPlugin 1.0
#
DISCID=960d6b0c
DTITLE=Matt O'Ree Band - Brotherhood
DYEAR=2016
DGENRE=Rock
TTITLE0=Black Boots
TTITLE1=My Everything Is You
TTITLE2=Life
TTITLE3=It's Gonna Be Alright
TTITLE4=Leave Your Light On
TTITLE5=Born Under a Bad Sign
TTITLE6=Saints and Sinners
TTITLE7=Awkward Silence
TTITLE8=Don't Ask Me
TTITLE9=Ten
TTITLE10=I Don't Dance
TTITLE11=December Gray
EXTD=
EXTT0=
EXTT1=
EXTT2=
EXTT3=
EXTT4=
EXTT5=
EXTT6=
EXTT7=
EXTT8=
EXTT9=
EXTT10=
EXTT11=
PLAYORDER=
